<svg xmlns="http://www.w3.org/2000/svg" xmlns:xlink="http://www.w3.org/1999/xlink" width="300" zoomAndPan="magnify" viewBox="0 0 224.87999 225" height="300" preserveAspectRatio="xMidYMid meet" version="1.0"><defs><g/><clipPath id="806b13502a"><path d="M 15.601562 93.347656 L 218.742188 93.347656 L 218.742188 99.34375 L 15.601562 99.34375 Z M 15.601562 93.347656 " clip-rule="nonzero"/></clipPath></defs><g fill="#ff0000" fill-opacity="1"><g transform="translate(98.963815, 136.711011)"><g><path d="M 12.0625 0.453125 C 8.71875 0.453125 6.085938 -0.457031 4.171875 -2.28125 C 2.253906 -4.101562 1.296875 -6.570312 1.296875 -9.6875 C 1.296875 -10.0625 1.332031 -10.703125 1.40625 -11.609375 L 3.4375 -27.84375 C 3.882812 -31.519531 5.335938 -34.445312 7.796875 -36.625 C 10.265625 -38.8125 13.335938 -39.90625 17.015625 -39.90625 C 20.328125 -39.90625 22.945312 -38.992188 24.875 -37.171875 C 26.8125 -35.347656 27.78125 -32.875 27.78125 -29.75 C 27.78125 -29.375 27.742188 -28.738281 27.671875 -27.84375 L 25.703125 -11.609375 C 25.253906 -7.929688 23.785156 -5 21.296875 -2.8125 C 18.816406 -0.632812 15.738281 0.453125 12.0625 0.453125 Z M 13.1875 -8.625 C 13.75 -8.625 14.226562 -8.847656 14.625 -9.296875 C 15.019531 -9.742188 15.273438 -10.363281 15.390625 -11.15625 L 17.46875 -28.296875 C 17.539062 -29.078125 17.445312 -29.691406 17.1875 -30.140625 C 16.925781 -30.597656 16.515625 -30.828125 15.953125 -30.828125 C 15.347656 -30.828125 14.847656 -30.597656 14.453125 -30.140625 C 14.054688 -29.691406 13.820312 -29.078125 13.75 -28.296875 L 11.671875 -11.15625 C 11.628906 -11.007812 11.609375 -10.804688 11.609375 -10.546875 C 11.609375 -9.941406 11.75 -9.46875 12.03125 -9.125 C 12.3125 -8.789062 12.695312 -8.625 13.1875 -8.625 Z M 13.1875 -8.625 "/></g></g></g><g fill="#ff0000" fill-opacity="1"><g transform="translate(129.401868, 136.711011)"><g><path d="M 0.390625 0 C 0.128906 0 -0.0625 -0.0703125 -0.1875 -0.21875 C -0.320312 -0.375 -0.375 -0.582031 -0.34375 -0.84375 L 0.625 -8.515625 C 0.695312 -8.921875 0.828125 -9.273438 1.015625 -9.578125 L 14.03125 -30.046875 C 14.144531 -30.265625 14.085938 -30.375 13.859375 -30.375 L 4.109375 -30.375 C 3.847656 -30.375 3.648438 -30.445312 3.515625 -30.59375 C 3.390625 -30.75 3.34375 -30.957031 3.375 -31.21875 L 4.28125 -38.609375 C 4.320312 -38.867188 4.425781 -39.070312 4.59375 -39.21875 C 4.757812 -39.375 4.972656 -39.453125 5.234375 -39.453125 L 25.359375 -39.453125 C 25.585938 -39.453125 25.765625 -39.375 25.890625 -39.21875 C 26.023438 -39.070312 26.070312 -38.867188 26.03125 -38.609375 L 25.140625 -30.9375 C 25.097656 -30.675781 24.960938 -30.320312 24.734375 -29.875 L 11.609375 -9.40625 C 11.421875 -9.1875 11.476562 -9.078125 11.78125 -9.078125 L 21.640625 -9.078125 C 21.867188 -9.078125 22.046875 -9 22.171875 -8.84375 C 22.304688 -8.695312 22.351562 -8.492188 22.3125 -8.234375 L 21.421875 -0.84375 C 21.378906 -0.582031 21.273438 -0.375 21.109375 -0.21875 C 20.941406 -0.0703125 20.742188 0 20.515625 0 Z M 0.390625 0 "/></g></g></g><g fill="#ff0000" fill-opacity="1"><g transform="translate(156.570675, 136.711011)"><g><path d="M 0.390625 0 C 0.128906 0 -0.0625 -0.0703125 -0.1875 -0.21875 C -0.320312 -0.375 -0.375 -0.582031 -0.34375 -0.84375 L 0.625 -8.515625 C 0.695312 -8.921875 0.828125 -9.273438 1.015625 -9.578125 L 14.03125 -30.046875 C 14.144531 -30.265625 14.085938 -30.375 13.859375 -30.375 L 4.109375 -30.375 C 3.847656 -30.375 3.648438 -30.445312 3.515625 -30.59375 C 3.390625 -30.75 3.34375 -30.957031 3.375 -31.21875 L 4.28125 -38.609375 C 4.320312 -38.867188 4.425781 -39.070312 4.59375 -39.21875 C 4.757812 -39.375 4.972656 -39.453125 5.234375 -39.453125 L 25.359375 -39.453125 C 25.585938 -39.453125 25.765625 -39.375 25.890625 -39.21875 C 26.023438 -39.070312 26.070312 -38.867188 26.03125 -38.609375 L 25.140625 -30.9375 C 25.097656 -30.675781 24.960938 -30.320312 24.734375 -29.875 L 11.609375 -9.40625 C 11.421875 -9.1875 11.476562 -9.078125 11.78125 -9.078125 L 21.640625 -9.078125 C 21.867188 -9.078125 22.046875 -9 22.171875 -8.84375 C 22.304688 -8.695312 22.351562 -8.492188 22.3125 -8.234375 L 21.421875 -0.84375 C 21.378906 -0.582031 21.273438 -0.375 21.109375 -0.21875 C 20.941406 -0.0703125 20.742188 0 20.515625 0 Z M 0.390625 0 "/></g></g></g><g fill="#ff0000" fill-opacity="1"><g transform="translate(183.739486, 136.711011)"><g><path d="M 8.453125 -0.109375 C 8.191406 -0.109375 7.992188 -0.179688 7.859375 -0.328125 C 7.734375 -0.484375 7.6875 -0.691406 7.71875 -0.953125 L 9.296875 -13.984375 C 9.335938 -14.054688 9.335938 -14.164062 9.296875 -14.3125 L 4.625 -38.5 L 4.625 -38.71875 C 4.625 -39.207031 4.882812 -39.453125 5.40625 -39.453125 L 14.484375 -39.453125 C 15.003906 -39.453125 15.285156 -39.207031 15.328125 -38.71875 L 16 -27.390625 C 16 -27.273438 16.046875 -27.21875 16.140625 -27.21875 C 16.234375 -27.21875 16.300781 -27.273438 16.34375 -27.390625 L 19.78125 -38.71875 C 19.925781 -39.207031 20.265625 -39.453125 20.796875 -39.453125 L 29.875 -39.453125 C 30.175781 -39.453125 30.375 -39.363281 30.46875 -39.1875 C 30.5625 -39.019531 30.550781 -38.789062 30.4375 -38.5 L 19.671875 -14.3125 L 19.609375 -13.984375 L 17.984375 -0.953125 C 17.941406 -0.691406 17.84375 -0.484375 17.6875 -0.328125 C 17.539062 -0.179688 17.335938 -0.109375 17.078125 -0.109375 Z M 8.453125 -0.109375 "/></g></g></g><g fill="#00ffff" fill-opacity="1"><g transform="translate(103.495088, 135.664888)"><g><path d="M 12.0625 0.453125 C 8.71875 0.453125 6.085938 -0.457031 4.171875 -2.28125 C 2.253906 -4.101562 1.296875 -6.570312 1.296875 -9.6875 C 1.296875 -10.0625 1.332031 -10.703125 1.40625 -11.609375 L 3.4375 -27.84375 C 3.882812 -31.519531 5.335938 -34.445312 7.796875 -36.625 C 10.265625 -38.8125 13.335938 -39.90625 17.015625 -39.90625 C 20.328125 -39.90625 22.945312 -38.992188 24.875 -37.171875 C 26.8125 -35.347656 27.78125 -32.875 27.78125 -29.75 C 27.78125 -29.375 27.742188 -28.738281 27.671875 -27.84375 L 25.703125 -11.609375 C 25.253906 -7.929688 23.785156 -5 21.296875 -2.8125 C 18.816406 -0.632812 15.738281 0.453125 12.0625 0.453125 Z M 13.1875 -8.625 C 13.75 -8.625 14.226562 -8.847656 14.625 -9.296875 C 15.019531 -9.742188 15.273438 -10.363281 15.390625 -11.15625 L 17.46875 -28.296875 C 17.539062 -29.078125 17.445312 -29.691406 17.1875 -30.140625 C 16.925781 -30.597656 16.515625 -30.828125 15.953125 -30.828125 C 15.347656 -30.828125 14.847656 -30.597656 14.453125 -30.140625 C 14.054688 -29.691406 13.820312 -29.078125 13.75 -28.296875 L 11.671875 -11.15625 C 11.628906 -11.007812 11.609375 -10.804688 11.609375 -10.546875 C 11.609375 -9.941406 11.75 -9.46875 12.03125 -9.125 C 12.3125 -8.789062 12.695312 -8.625 13.1875 -8.625 Z M 13.1875 -8.625 "/></g></g></g><g fill="#00ffff" fill-opacity="1"><g transform="translate(133.933141, 135.664888)"><g><path d="M 0.390625 0 C 0.128906 0 -0.0625 -0.0703125 -0.1875 -0.21875 C -0.320312 -0.375 -0.375 -0.582031 -0.34375 -0.84375 L 0.625 -8.515625 C 0.695312 -8.921875 0.828125 -9.273438 1.015625 -9.578125 L 14.03125 -30.046875 C 14.144531 -30.265625 14.085938 -30.375 13.859375 -30.375 L 4.109375 -30.375 C 3.847656 -30.375 3.648438 -30.445312 3.515625 -30.59375 C 3.390625 -30.75 3.34375 -30.957031 3.375 -31.21875 L 4.28125 -38.609375 C 4.320312 -38.867188 4.425781 -39.070312 4.59375 -39.21875 C 4.757812 -39.375 4.972656 -39.453125 5.234375 -39.453125 L 25.359375 -39.453125 C 25.585938 -39.453125 25.765625 -39.375 25.890625 -39.21875 C 26.023438 -39.070312 26.070312 -38.867188 26.03125 -38.609375 L 25.140625 -30.9375 C 25.097656 -30.675781 24.960938 -30.320312 24.734375 -29.875 L 11.609375 -9.40625 C 11.421875 -9.1875 11.476562 -9.078125 11.78125 -9.078125 L 21.640625 -9.078125 C 21.867188 -9.078125 22.046875 -9 22.171875 -8.84375 C 22.304688 -8.695312 22.351562 -8.492188 22.3125 -8.234375 L 21.421875 -0.84375 C 21.378906 -0.582031 21.273438 -0.375 21.109375 -0.21875 C 20.941406 -0.0703125 20.742188 0 20.515625 0 Z M 0.390625 0 "/></g></g></g><g fill="#00ffff" fill-opacity="1"><g transform="translate(161.101948, 135.664888)"><g><path d="M 0.390625 0 C 0.128906 0 -0.0625 -0.0703125 -0.1875 -0.21875 C -0.320312 -0.375 -0.375 -0.582031 -0.34375 -0.84375 L 0.625 -8.515625 C 0.695312 -8.921875 0.828125 -9.273438 1.015625 -9.578125 L 14.03125 -30.046875 C 14.144531 -30.265625 14.085938 -30.375 13.859375 -30.375 L 4.109375 -30.375 C 3.847656 -30.375 3.648438 -30.445312 3.515625 -30.59375 C 3.390625 -30.75 3.34375 -30.957031 3.375 -31.21875 L 4.28125 -38.609375 C 4.320312 -38.867188 4.425781 -39.070312 4.59375 -39.21875 C 4.757812 -39.375 4.972656 -39.453125 5.234375 -39.453125 L 25.359375 -39.453125 C 25.585938 -39.453125 25.765625 -39.375 25.890625 -39.21875 C 26.023438 -39.070312 26.070312 -38.867188 26.03125 -38.609375 L 25.140625 -30.9375 C 25.097656 -30.675781 24.960938 -30.320312 24.734375 -29.875 L 11.609375 -9.40625 C 11.421875 -9.1875 11.476562 -9.078125 11.78125 -9.078125 L 21.640625 -9.078125 C 21.867188 -9.078125 22.046875 -9 22.171875 -8.84375 C 22.304688 -8.695312 22.351562 -8.492188 22.3125 -8.234375 L 21.421875 -0.84375 C 21.378906 -0.582031 21.273438 -0.375 21.109375 -0.21875 C 20.941406 -0.0703125 20.742188 0 20.515625 0 Z M 0.390625 0 "/></g></g></g><g fill="#00ffff" fill-opacity="1"><g transform="translate(188.270759, 135.664888)"><g><path d="M 8.453125 -0.109375 C 8.191406 -0.109375 7.992188 -0.179688 7.859375 -0.328125 C 7.734375 -0.484375 7.6875 -0.691406 7.71875 -0.953125 L 9.296875 -13.984375 C 9.335938 -14.054688 9.335938 -14.164062 9.296875 -14.3125 L 4.625 -38.5 L 4.625 -38.71875 C 4.625 -39.207031 4.882812 -39.453125 5.40625 -39.453125 L 14.484375 -39.453125 C 15.003906 -39.453125 15.285156 -39.207031 15.328125 -38.71875 L 16 -27.390625 C 16 -27.273438 16.046875 -27.21875 16.140625 -27.21875 C 16.234375 -27.21875 16.300781 -27.273438 16.34375 -27.390625 L 19.78125 -38.71875 C 19.925781 -39.207031 20.265625 -39.453125 20.796875 -39.453125 L 29.875 -39.453125 C 30.175781 -39.453125 30.375 -39.363281 30.46875 -39.1875 C 30.5625 -39.019531 30.550781 -38.789062 30.4375 -38.5 L 19.671875 -14.3125 L 19.609375 -13.984375 L 17.984375 -0.953125 C 17.941406 -0.691406 17.84375 -0.484375 17.6875 -0.328125 C 17.539062 -0.179688 17.335938 -0.109375 17.078125 -0.109375 Z M 8.453125 -0.109375 "/></g></g></g><g fill="#191919" fill-opacity="1"><g transform="translate(101.229452, 136.187948)"><g><path d="M 12.0625 0.453125 C 8.71875 0.453125 6.085938 -0.457031 4.171875 -2.28125 C 2.253906 -4.101562 1.296875 -6.570312 1.296875 -9.6875 C 1.296875 -10.0625 1.332031 -10.703125 1.40625 -11.609375 L 3.4375 -27.84375 C 3.882812 -31.519531 5.335938 -34.445312 7.796875 -36.625 C 10.265625 -38.8125 13.335938 -39.90625 17.015625 -39.90625 C 20.328125 -39.90625 22.945312 -38.992188 24.875 -37.171875 C 26.8125 -35.347656 27.78125 -32.875 27.78125 -29.75 C 27.78125 -29.375 27.742188 -28.738281 27.671875 -27.84375 L 25.703125 -11.609375 C 25.253906 -7.929688 23.785156 -5 21.296875 -2.8125 C 18.816406 -0.632812 15.738281 0.453125 12.0625 0.453125 Z M 13.1875 -8.625 C 13.75 -8.625 14.226562 -8.847656 14.625 -9.296875 C 15.019531 -9.742188 15.273438 -10.363281 15.390625 -11.15625 L 17.46875 -28.296875 C 17.539062 -29.078125 17.445312 -29.691406 17.1875 -30.140625 C 16.925781 -30.597656 16.515625 -30.828125 15.953125 -30.828125 C 15.347656 -30.828125 14.847656 -30.597656 14.453125 -30.140625 C 14.054688 -29.691406 13.820312 -29.078125 13.75 -28.296875 L 11.671875 -11.15625 C 11.628906 -11.007812 11.609375 -10.804688 11.609375 -10.546875 C 11.609375 -9.941406 11.75 -9.46875 12.03125 -9.125 C 12.3125 -8.789062 12.695312 -8.625 13.1875 -8.625 Z M 13.1875 -8.625 "/></g></g></g><g fill="#191919" fill-opacity="1"><g transform="translate(131.667505, 136.187948)"><g><path d="M 0.390625 0 C 0.128906 0 -0.0625 -0.0703125 -0.1875 -0.21875 C -0.320312 -0.375 -0.375 -0.582031 -0.34375 -0.84375 L 0.625 -8.515625 C 0.695312 -8.921875 0.828125 -9.273438 1.015625 -9.578125 L 14.03125 -30.046875 C 14.144531 -30.265625 14.085938 -30.375 13.859375 -30.375 L 4.109375 -30.375 C 3.847656 -30.375 3.648438 -30.445312 3.515625 -30.59375 C 3.390625 -30.75 3.34375 -30.957031 3.375 -31.21875 L 4.28125 -38.609375 C 4.320312 -38.867188 4.425781 -39.070312 4.59375 -39.21875 C 4.757812 -39.375 4.972656 -39.453125 5.234375 -39.453125 L 25.359375 -39.453125 C 25.585938 -39.453125 25.765625 -39.375 25.890625 -39.21875 C 26.023438 -39.070312 26.070312 -38.867188 26.03125 -38.609375 L 25.140625 -30.9375 C 25.097656 -30.675781 24.960938 -30.320312 24.734375 -29.875 L 11.609375 -9.40625 C 11.421875 -9.1875 11.476562 -9.078125 11.78125 -9.078125 L 21.640625 -9.078125 C 21.867188 -9.078125 22.046875 -9 22.171875 -8.84375 C 22.304688 -8.695312 22.351562 -8.492188 22.3125 -8.234375 L 21.421875 -0.84375 C 21.378906 -0.582031 21.273438 -0.375 21.109375 -0.21875 C 20.941406 -0.0703125 20.742188 0 20.515625 0 Z M 0.390625 0 "/></g></g></g><g fill="#191919" fill-opacity="1"><g transform="translate(158.836312, 136.187948)"><g><path d="M 0.390625 0 C 0.128906 0 -0.0625 -0.0703125 -0.1875 -0.21875 C -0.320312 -0.375 -0.375 -0.582031 -0.34375 -0.84375 L 0.625 -8.515625 C 0.695312 -8.921875 0.828125 -9.273438 1.015625 -9.578125 L 14.03125 -30.046875 C 14.144531 -30.265625 14.085938 -30.375 13.859375 -30.375 L 4.109375 -30.375 C 3.847656 -30.375 3.648438 -30.445312 3.515625 -30.59375 C 3.390625 -30.75 3.34375 -30.957031 3.375 -31.21875 L 4.28125 -38.609375 C 4.320312 -38.867188 4.425781 -39.070312 4.59375 -39.21875 C 4.757812 -39.375 4.972656 -39.453125 5.234375 -39.453125 L 25.359375 -39.453125 C 25.585938 -39.453125 25.765625 -39.375 25.890625 -39.21875 C 26.023438 -39.070312 26.070312 -38.867188 26.03125 -38.609375 L 25.140625 -30.9375 C 25.097656 -30.675781 24.960938 -30.320312 24.734375 -29.875 L 11.609375 -9.40625 C 11.421875 -9.1875 11.476562 -9.078125 11.78125 -9.078125 L 21.640625 -9.078125 C 21.867188 -9.078125 22.046875 -9 22.171875 -8.84375 C 22.304688 -8.695312 22.351562 -8.492188 22.3125 -8.234375 L 21.421875 -0.84375 C 21.378906 -0.582031 21.273438 -0.375 21.109375 -0.21875 C 20.941406 -0.0703125 20.742188 0 20.515625 0 Z M 0.390625 0 "/></g></g></g><g fill="#191919" fill-opacity="1"><g transform="translate(186.005123, 136.187948)"><g><path d="M 8.453125 -0.109375 C 8.191406 -0.109375 7.992188 -0.179688 7.859375 -0.328125 C 7.734375 -0.484375 7.6875 -0.691406 7.71875 -0.953125 L 9.296875 -13.984375 C 9.335938 -14.054688 9.335938 -14.164062 9.296875 -14.3125 L 4.625 -38.5 L 4.625 -38.71875 C 4.625 -39.207031 4.882812 -39.453125 5.40625 -39.453125 L 14.484375 -39.453125 C 15.003906 -39.453125 15.285156 -39.207031 15.328125 -38.71875 L 16 -27.390625 C 16 -27.273438 16.046875 -27.21875 16.140625 -27.21875 C 16.234375 -27.21875 16.300781 -27.273438 16.34375 -27.390625 L 19.78125 -38.71875 C 19.925781 -39.207031 20.265625 -39.453125 20.796875 -39.453125 L 29.875 -39.453125 C 30.175781 -39.453125 30.375 -39.363281 30.46875 -39.1875 C 30.5625 -39.019531 30.550781 -38.789062 30.4375 -38.5 L 19.671875 -14.3125 L 19.609375 -13.984375 L 17.984375 -0.953125 C 17.941406 -0.691406 17.84375 -0.484375 17.6875 -0.328125 C 17.539062 -0.179688 17.335938 -0.109375 17.078125 -0.109375 Z M 8.453125 -0.109375 "/></g></g></g><g fill="#ff0000" fill-opacity="1"><g transform="translate(33.066064, 97.819151)"><g><path d="M 11.15625 0.453125 C 7.925781 0.453125 5.351562 -0.421875 3.4375 -2.171875 C 1.519531 -3.921875 0.5625 -6.238281 0.5625 -9.125 C 0.5625 -9.5 0.597656 -10.066406 0.671875 -10.828125 L 1.078125 -14.09375 C 1.109375 -14.351562 1.207031 -14.554688 1.375 -14.703125 C 1.550781 -14.859375 1.75 -14.9375 1.96875 -14.9375 L 10.65625 -14.9375 C 10.875 -14.9375 11.050781 -14.859375 11.1875 -14.703125 C 11.320312 -14.554688 11.367188 -14.351562 11.328125 -14.09375 L 10.9375 -10.703125 C 10.863281 -10.109375 10.945312 -9.613281 11.1875 -9.21875 C 11.425781 -8.820312 11.789062 -8.625 12.28125 -8.625 C 12.769531 -8.625 13.203125 -8.820312 13.578125 -9.21875 C 13.953125 -9.613281 14.160156 -10.109375 14.203125 -10.703125 L 17.640625 -38.609375 C 17.679688 -38.867188 17.785156 -39.070312 17.953125 -39.21875 C 18.117188 -39.375 18.316406 -39.453125 18.546875 -39.453125 L 27.21875 -39.453125 C 27.445312 -39.453125 27.625 -39.375 27.75 -39.21875 C 27.882812 -39.070312 27.929688 -38.867188 27.890625 -38.609375 L 24.515625 -10.828125 C 24.253906 -8.609375 23.507812 -6.640625 22.28125 -4.921875 C 21.0625 -3.210938 19.492188 -1.890625 17.578125 -0.953125 C 15.660156 -0.015625 13.519531 0.453125 11.15625 0.453125 Z M 11.15625 0.453125 "/></g></g></g><g fill="#ff0000" fill-opacity="1"><g transform="translate(62.771357, 97.819151)"><g><path d="M 26.03125 -31.21875 C 26 -30.957031 25.894531 -30.75 25.71875 -30.59375 C 25.550781 -30.445312 25.335938 -30.375 25.078125 -30.375 L 14.59375 -30.375 C 14.40625 -30.375 14.3125 -30.28125 14.3125 -30.09375 L 13.640625 -24.578125 C 13.566406 -24.390625 13.640625 -24.296875 13.859375 -24.296875 L 19.328125 -24.296875 C 19.585938 -24.296875 19.785156 -24.21875 19.921875 -24.0625 C 20.054688 -23.914062 20.101562 -23.710938 20.0625 -23.453125 L 19.15625 -16.0625 C 19.050781 -15.5 18.734375 -15.21875 18.203125 -15.21875 L 12.734375 -15.21875 C 12.546875 -15.21875 12.453125 -15.125 12.453125 -14.9375 L 11.78125 -9.359375 C 11.707031 -9.171875 11.78125 -9.078125 12 -9.078125 L 22.484375 -9.078125 C 22.742188 -9.078125 22.941406 -9 23.078125 -8.84375 C 23.210938 -8.695312 23.257812 -8.492188 23.21875 -8.234375 L 22.3125 -0.84375 C 22.28125 -0.582031 22.175781 -0.375 22 -0.21875 C 21.832031 -0.0703125 21.617188 0 21.359375 0 L 1.125 0 C 0.894531 0 0.710938 -0.0703125 0.578125 -0.21875 C 0.453125 -0.375 0.410156 -0.582031 0.453125 -0.84375 L 5.078125 -38.609375 C 5.109375 -38.867188 5.207031 -39.070312 5.375 -39.21875 C 5.550781 -39.375 5.75 -39.453125 5.96875 -39.453125 L 26.203125 -39.453125 C 26.472656 -39.453125 26.671875 -39.375 26.796875 -39.21875 C 26.929688 -39.070312 26.976562 -38.867188 26.9375 -38.609375 Z M 26.03125 -31.21875 "/></g></g></g><g fill="#ff0000" fill-opacity="1"><g transform="translate(91.067486, 97.819151)"><g><path d="M 26.03125 -31.21875 C 26 -30.957031 25.894531 -30.75 25.71875 -30.59375 C 25.550781 -30.445312 25.335938 -30.375 25.078125 -30.375 L 14.59375 -30.375 C 14.40625 -30.375 14.3125 -30.28125 14.3125 -30.09375 L 13.640625 -24.578125 C 13.566406 -24.390625 13.640625 -24.296875 13.859375 -24.296875 L 19.328125 -24.296875 C 19.585938 -24.296875 19.785156 -24.21875 19.921875 -24.0625 C 20.054688 -23.914062 20.101562 -23.710938 20.0625 -23.453125 L 19.15625 -16.0625 C 19.050781 -15.5 18.734375 -15.21875 18.203125 -15.21875 L 12.734375 -15.21875 C 12.546875 -15.21875 12.453125 -15.125 12.453125 -14.9375 L 10.703125 -0.84375 C 10.671875 -0.582031 10.566406 -0.375 10.390625 -0.21875 C 10.222656 -0.0703125 10.03125 0 9.8125 0 L 1.125 0 C 0.894531 0 0.710938 -0.0703125 0.578125 -0.21875 C 0.453125 -0.375 0.410156 -0.582031 0.453125 -0.84375 L 5.078125 -38.609375 C 5.109375 -38.867188 5.207031 -39.070312 5.375 -39.21875 C 5.550781 -39.375 5.75 -39.453125 5.96875 -39.453125 L 26.203125 -39.453125 C 26.472656 -39.453125 26.671875 -39.375 26.796875 -39.21875 C 26.929688 -39.070312 26.976562 -38.867188 26.9375 -38.609375 Z M 26.03125 -31.21875 "/></g></g></g><g fill="#ff0000" fill-opacity="1"><g transform="translate(118.687222, 97.819151)"><g><path d="M 26.03125 -31.21875 C 26 -30.957031 25.894531 -30.75 25.71875 -30.59375 C 25.550781 -30.445312 25.335938 -30.375 25.078125 -30.375 L 14.59375 -30.375 C 14.40625 -30.375 14.3125 -30.28125 14.3125 -30.09375 L 13.640625 -24.578125 C 13.566406 -24.390625 13.640625 -24.296875 13.859375 -24.296875 L 19.328125 -24.296875 C 19.585938 -24.296875 19.785156 -24.21875 19.921875 -24.0625 C 20.054688 -23.914062 20.101562 -23.710938 20.0625 -23.453125 L 19.15625 -16.0625 C 19.050781 -15.5 18.734375 -15.21875 18.203125 -15.21875 L 12.734375 -15.21875 C 12.546875 -15.21875 12.453125 -15.125 12.453125 -14.9375 L 10.703125 -0.84375 C 10.671875 -0.582031 10.566406 -0.375 10.390625 -0.21875 C 10.222656 -0.0703125 10.03125 0 9.8125 0 L 1.125 0 C 0.894531 0 0.710938 -0.0703125 0.578125 -0.21875 C 0.453125 -0.375 0.410156 -0.582031 0.453125 -0.84375 L 5.078125 -38.609375 C 5.109375 -38.867188 5.207031 -39.070312 5.375 -39.21875 C 5.550781 -39.375 5.75 -39.453125 5.96875 -39.453125 L 26.203125 -39.453125 C 26.472656 -39.453125 26.671875 -39.375 26.796875 -39.21875 C 26.929688 -39.070312 26.976562 -38.867188 26.9375 -38.609375 Z M 26.03125 -31.21875 "/></g></g></g><g fill="#00ffff" fill-opacity="1"><g transform="translate(37.597338, 96.773026)"><g><path d="M 11.15625 0.453125 C 7.925781 0.453125 5.351562 -0.421875 3.4375 -2.171875 C 1.519531 -3.921875 0.5625 -6.238281 0.5625 -9.125 C 0.5625 -9.5 0.597656 -10.066406 0.671875 -10.828125 L 1.078125 -14.09375 C 1.109375 -14.351562 1.207031 -14.554688 1.375 -14.703125 C 1.550781 -14.859375 1.75 -14.9375 1.96875 -14.9375 L 10.65625 -14.9375 C 10.875 -14.9375 11.050781 -14.859375 11.1875 -14.703125 C 11.320312 -14.554688 11.367188 -14.351562 11.328125 -14.09375 L 10.9375 -10.703125 C 10.863281 -10.109375 10.945312 -9.613281 11.1875 -9.21875 C 11.425781 -8.820312 11.789062 -8.625 12.28125 -8.625 C 12.769531 -8.625 13.203125 -8.820312 13.578125 -9.21875 C 13.953125 -9.613281 14.160156 -10.109375 14.203125 -10.703125 L 17.640625 -38.609375 C 17.679688 -38.867188 17.785156 -39.070312 17.953125 -39.21875 C 18.117188 -39.375 18.316406 -39.453125 18.546875 -39.453125 L 27.21875 -39.453125 C 27.445312 -39.453125 27.625 -39.375 27.75 -39.21875 C 27.882812 -39.070312 27.929688 -38.867188 27.890625 -38.609375 L 24.515625 -10.828125 C 24.253906 -8.609375 23.507812 -6.640625 22.28125 -4.921875 C 21.0625 -3.210938 19.492188 -1.890625 17.578125 -0.953125 C 15.660156 -0.015625 13.519531 0.453125 11.15625 0.453125 Z M 11.15625 0.453125 "/></g></g></g><g fill="#00ffff" fill-opacity="1"><g transform="translate(67.30263, 96.773026)"><g><path d="M 26.03125 -31.21875 C 26 -30.957031 25.894531 -30.75 25.71875 -30.59375 C 25.550781 -30.445312 25.335938 -30.375 25.078125 -30.375 L 14.59375 -30.375 C 14.40625 -30.375 14.3125 -30.28125 14.3125 -30.09375 L 13.640625 -24.578125 C 13.566406 -24.390625 13.640625 -24.296875 13.859375 -24.296875 L 19.328125 -24.296875 C 19.585938 -24.296875 19.785156 -24.21875 19.921875 -24.0625 C 20.054688 -23.914062 20.101562 -23.710938 20.0625 -23.453125 L 19.15625 -16.0625 C 19.050781 -15.5 18.734375 -15.21875 18.203125 -15.21875 L 12.734375 -15.21875 C 12.546875 -15.21875 12.453125 -15.125 12.453125 -14.9375 L 11.78125 -9.359375 C 11.707031 -9.171875 11.78125 -9.078125 12 -9.078125 L 22.484375 -9.078125 C 22.742188 -9.078125 22.941406 -9 23.078125 -8.84375 C 23.210938 -8.695312 23.257812 -8.492188 23.21875 -8.234375 L 22.3125 -0.84375 C 22.28125 -0.582031 22.175781 -0.375 22 -0.21875 C 21.832031 -0.0703125 21.617188 0 21.359375 0 L 1.125 0 C 0.894531 0 0.710938 -0.0703125 0.578125 -0.21875 C 0.453125 -0.375 0.410156 -0.582031 0.453125 -0.84375 L 5.078125 -38.609375 C 5.109375 -38.867188 5.207031 -39.070312 5.375 -39.21875 C 5.550781 -39.375 5.75 -39.453125 5.96875 -39.453125 L 26.203125 -39.453125 C 26.472656 -39.453125 26.671875 -39.375 26.796875 -39.21875 C 26.929688 -39.070312 26.976562 -38.867188 26.9375 -38.609375 Z M 26.03125 -31.21875 "/></g></g></g><g fill="#00ffff" fill-opacity="1"><g transform="translate(95.598759, 96.773026)"><g><path d="M 26.03125 -31.21875 C 26 -30.957031 25.894531 -30.75 25.71875 -30.59375 C 25.550781 -30.445312 25.335938 -30.375 25.078125 -30.375 L 14.59375 -30.375 C 14.40625 -30.375 14.3125 -30.28125 14.3125 -30.09375 L 13.640625 -24.578125 C 13.566406 -24.390625 13.640625 -24.296875 13.859375 -24.296875 L 19.328125 -24.296875 C 19.585938 -24.296875 19.785156 -24.21875 19.921875 -24.0625 C 20.054688 -23.914062 20.101562 -23.710938 20.0625 -23.453125 L 19.15625 -16.0625 C 19.050781 -15.5 18.734375 -15.21875 18.203125 -15.21875 L 12.734375 -15.21875 C 12.546875 -15.21875 12.453125 -15.125 12.453125 -14.9375 L 10.703125 -0.84375 C 10.671875 -0.582031 10.566406 -0.375 10.390625 -0.21875 C 10.222656 -0.0703125 10.03125 0 9.8125 0 L 1.125 0 C 0.894531 0 0.710938 -0.0703125 0.578125 -0.21875 C 0.453125 -0.375 0.410156 -0.582031 0.453125 -0.84375 L 5.078125 -38.609375 C 5.109375 -38.867188 5.207031 -39.070312 5.375 -39.21875 C 5.550781 -39.375 5.75 -39.453125 5.96875 -39.453125 L 26.203125 -39.453125 C 26.472656 -39.453125 26.671875 -39.375 26.796875 -39.21875 C 26.929688 -39.070312 26.976562 -38.867188 26.9375 -38.609375 Z M 26.03125 -31.21875 "/></g></g></g><g fill="#00ffff" fill-opacity="1"><g transform="translate(123.218495, 96.773026)"><g><path d="M 26.03125 -31.21875 C 26 -30.957031 25.894531 -30.75 25.71875 -30.59375 C 25.550781 -30.445312 25.335938 -30.375 25.078125 -30.375 L 14.59375 -30.375 C 14.40625 -30.375 14.3125 -30.28125 14.3125 -30.09375 L 13.640625 -24.578125 C 13.566406 -24.390625 13.640625 -24.296875 13.859375 -24.296875 L 19.328125 -24.296875 C 19.585938 -24.296875 19.785156 -24.21875 19.921875 -24.0625 C 20.054688 -23.914062 20.101562 -23.710938 20.0625 -23.453125 L 19.15625 -16.0625 C 19.050781 -15.5 18.734375 -15.21875 18.203125 -15.21875 L 12.734375 -15.21875 C 12.546875 -15.21875 12.453125 -15.125 12.453125 -14.9375 L 10.703125 -0.84375 C 10.671875 -0.582031 10.566406 -0.375 10.390625 -0.21875 C 10.222656 -0.0703125 10.03125 0 9.8125 0 L 1.125 0 C 0.894531 0 0.710938 -0.0703125 0.578125 -0.21875 C 0.453125 -0.375 0.410156 -0.582031 0.453125 -0.84375 L 5.078125 -38.609375 C 5.109375 -38.867188 5.207031 -39.070312 5.375 -39.21875 C 5.550781 -39.375 5.75 -39.453125 5.96875 -39.453125 L 26.203125 -39.453125 C 26.472656 -39.453125 26.671875 -39.375 26.796875 -39.21875 C 26.929688 -39.070312 26.976562 -38.867188 26.9375 -38.609375 Z M 26.03125 -31.21875 "/></g></g></g><g fill="#191919" fill-opacity="1"><g transform="translate(35.331701, 97.296088)"><g><path d="M 11.15625 0.453125 C 7.925781 0.453125 5.351562 -0.421875 3.4375 -2.171875 C 1.519531 -3.921875 0.5625 -6.238281 0.5625 -9.125 C 0.5625 -9.5 0.597656 -10.066406 0.671875 -10.828125 L 1.078125 -14.09375 C 1.109375 -14.351562 1.207031 -14.554688 1.375 -14.703125 C 1.550781 -14.859375 1.75 -14.9375 1.96875 -14.9375 L 10.65625 -14.9375 C 10.875 -14.9375 11.050781 -14.859375 11.1875 -14.703125 C 11.320312 -14.554688 11.367188 -14.351562 11.328125 -14.09375 L 10.9375 -10.703125 C 10.863281 -10.109375 10.945312 -9.613281 11.1875 -9.21875 C 11.425781 -8.820312 11.789062 -8.625 12.28125 -8.625 C 12.769531 -8.625 13.203125 -8.820312 13.578125 -9.21875 C 13.953125 -9.613281 14.160156 -10.109375 14.203125 -10.703125 L 17.640625 -38.609375 C 17.679688 -38.867188 17.785156 -39.070312 17.953125 -39.21875 C 18.117188 -39.375 18.316406 -39.453125 18.546875 -39.453125 L 27.21875 -39.453125 C 27.445312 -39.453125 27.625 -39.375 27.75 -39.21875 C 27.882812 -39.070312 27.929688 -38.867188 27.890625 -38.609375 L 24.515625 -10.828125 C 24.253906 -8.609375 23.507812 -6.640625 22.28125 -4.921875 C 21.0625 -3.210938 19.492188 -1.890625 17.578125 -0.953125 C 15.660156 -0.015625 13.519531 0.453125 11.15625 0.453125 Z M 11.15625 0.453125 "/></g></g></g><g fill="#191919" fill-opacity="1"><g transform="translate(65.036994, 97.296088)"><g><path d="M 26.03125 -31.21875 C 26 -30.957031 25.894531 -30.75 25.71875 -30.59375 C 25.550781 -30.445312 25.335938 -30.375 25.078125 -30.375 L 14.59375 -30.375 C 14.40625 -30.375 14.3125 -30.28125 14.3125 -30.09375 L 13.640625 -24.578125 C 13.566406 -24.390625 13.640625 -24.296875 13.859375 -24.296875 L 19.328125 -24.296875 C 19.585938 -24.296875 19.785156 -24.21875 19.921875 -24.0625 C 20.054688 -23.914062 20.101562 -23.710938 20.0625 -23.453125 L 19.15625 -16.0625 C 19.050781 -15.5 18.734375 -15.21875 18.203125 -15.21875 L 12.734375 -15.21875 C 12.546875 -15.21875 12.453125 -15.125 12.453125 -14.9375 L 11.78125 -9.359375 C 11.707031 -9.171875 11.78125 -9.078125 12 -9.078125 L 22.484375 -9.078125 C 22.742188 -9.078125 22.941406 -9 23.078125 -8.84375 C 23.210938 -8.695312 23.257812 -8.492188 23.21875 -8.234375 L 22.3125 -0.84375 C 22.28125 -0.582031 22.175781 -0.375 22 -0.21875 C 21.832031 -0.0703125 21.617188 0 21.359375 0 L 1.125 0 C 0.894531 0 0.710938 -0.0703125 0.578125 -0.21875 C 0.453125 -0.375 0.410156 -0.582031 0.453125 -0.84375 L 5.078125 -38.609375 C 5.109375 -38.867188 5.207031 -39.070312 5.375 -39.21875 C 5.550781 -39.375 5.75 -39.453125 5.96875 -39.453125 L 26.203125 -39.453125 C 26.472656 -39.453125 26.671875 -39.375 26.796875 -39.21875 C 26.929688 -39.070312 26.976562 -38.867188 26.9375 -38.609375 Z M 26.03125 -31.21875 "/></g></g></g><g fill="#191919" fill-opacity="1"><g transform="translate(93.333123, 97.296088)"><g><path d="M 26.03125 -31.21875 C 26 -30.957031 25.894531 -30.75 25.71875 -30.59375 C 25.550781 -30.445312 25.335938 -30.375 25.078125 -30.375 L 14.59375 -30.375 C 14.40625 -30.375 14.3125 -30.28125 14.3125 -30.09375 L 13.640625 -24.578125 C 13.566406 -24.390625 13.640625 -24.296875 13.859375 -24.296875 L 19.328125 -24.296875 C 19.585938 -24.296875 19.785156 -24.21875 19.921875 -24.0625 C 20.054688 -23.914062 20.101562 -23.710938 20.0625 -23.453125 L 19.15625 -16.0625 C 19.050781 -15.5 18.734375 -15.21875 18.203125 -15.21875 L 12.734375 -15.21875 C 12.546875 -15.21875 12.453125 -15.125 12.453125 -14.9375 L 10.703125 -0.84375 C 10.671875 -0.582031 10.566406 -0.375 10.390625 -0.21875 C 10.222656 -0.0703125 10.03125 0 9.8125 0 L 1.125 0 C 0.894531 0 0.710938 -0.0703125 0.578125 -0.21875 C 0.453125 -0.375 0.410156 -0.582031 0.453125 -0.84375 L 5.078125 -38.609375 C 5.109375 -38.867188 5.207031 -39.070312 5.375 -39.21875 C 5.550781 -39.375 5.75 -39.453125 5.96875 -39.453125 L 26.203125 -39.453125 C 26.472656 -39.453125 26.671875 -39.375 26.796875 -39.21875 C 26.929688 -39.070312 26.976562 -38.867188 26.9375 -38.609375 Z M 26.03125 -31.21875 "/></g></g></g><g fill="#191919" fill-opacity="1"><g transform="translate(120.952858, 97.296088)"><g><path d="M 26.03125 -31.21875 C 26 -30.957031 25.894531 -30.75 25.71875 -30.59375 C 25.550781 -30.445312 25.335938 -30.375 25.078125 -30.375 L 14.59375 -30.375 C 14.40625 -30.375 14.3125 -30.28125 14.3125 -30.09375 L 13.640625 -24.578125 C 13.566406 -24.390625 13.640625 -24.296875 13.859375 -24.296875 L 19.328125 -24.296875 C 19.585938 -24.296875 19.785156 -24.21875 19.921875 -24.0625 C 20.054688 -23.914062 20.101562 -23.710938 20.0625 -23.453125 L 19.15625 -16.0625 C 19.050781 -15.5 18.734375 -15.21875 18.203125 -15.21875 L 12.734375 -15.21875 C 12.546875 -15.21875 12.453125 -15.125 12.453125 -14.9375 L 10.703125 -0.84375 C 10.671875 -0.582031 10.566406 -0.375 10.390625 -0.21875 C 10.222656 -0.0703125 10.03125 0 9.8125 0 L 1.125 0 C 0.894531 0 0.710938 -0.0703125 0.578125 -0.21875 C 0.453125 -0.375 0.410156 -0.582031 0.453125 -0.84375 L 5.078125 -38.609375 C 5.109375 -38.867188 5.207031 -39.070312 5.375 -39.21875 C 5.550781 -39.375 5.75 -39.453125 5.96875 -39.453125 L 26.203125 -39.453125 C 26.472656 -39.453125 26.671875 -39.375 26.796875 -39.21875 C 26.929688 -39.070312 26.976562 -38.867188 26.9375 -38.609375 Z M 26.03125 -31.21875 "/></g></g></g><g clip-path="url(#806b13502a)"><path fill="#fe1100" d="M 15.617188 93.433594 L 16.96875 95.507812 L 23.128906 96.304688 L 31.386719 97.066406 L 52.984375 98.453125 L 57.878906 98.996094 L 69.761719 99.335938 C 73.246094 99.339844 76.992188 99.316406 81.003906 99.265625 L 87.765625 99.152344 C 89.0625 99.136719 98.050781 98.9375 114.730469 98.550781 L 126.277344 98.316406 L 146.003906 98.003906 L 156.398438 97.996094 L 166.382812 98.09375 C 169.414062 98.167969 178.269531 98.34375 192.945312 98.628906 L 208.941406 98.835938 L 216.878906 98.730469 L 218.757812 98.375 L 218.207031 96.476562 C 211.921875 95.707031 207.78125 95.238281 205.785156 95.074219 L 192.222656 94.726562 C 177.511719 94.550781 169.066406 94.464844 166.882812 94.460938 C 161.292969 94.472656 155.449219 94.464844 149.355469 94.441406 L 140.105469 94.519531 C 133.859375 94.589844 127.671875 94.675781 121.546875 94.777344 L 115.613281 94.390625 L 105.554688 94.445312 C 99.300781 94.5625 87.398438 94.878906 69.84375 95.386719 L 61.523438 95.476562 L 52.046875 95.144531 L 42.851562 94.652344 C 37.714844 94.300781 30.558594 93.867188 21.375 93.355469 L 15.617188 93.433594 " fill-opacity="1" fill-rule="nonzero"/></g></svg>